<?xml version="1.0" standalone="no"?>
<!DOCTYPE svg PUBLIC "-//W3C//DTD SVG 1.1//EN" 
  "http://www.w3.org/Graphics/SVG/1.1/DTD/svg11.dtd">
<svg width="1024" height="1024" viewBox="0 0 1024 1024"
     xmlns="http://www.w3.org/2000/svg" version="1.1">
<desc>Folding Carton.blend, (Blender 2.83.5)</desc>
<polygon stroke="black" stroke-width="1" fill="rgb(204, 204, 204)" fill-opacity="0.25" points="330.711,531.179 330.710,892.918 692.449,892.919 692.450,531.179 " />
<polygon stroke="black" stroke-width="1" fill="rgb(204, 204, 204)" fill-opacity="0.25" points="330.711,531.179 692.450,531.179 692.450,396.511 330.711,396.510 " />
<polygon stroke="black" stroke-width="1" fill="rgb(204, 204, 204)" fill-opacity="0.25" points="692.449,892.919 330.710,892.918 330.710,1023.922 692.449,1023.922 " />
<polygon stroke="black" stroke-width="1" fill="rgb(204, 204, 204)" fill-opacity="0.25" points="330.711,396.510 692.450,396.511 692.450,19.402 330.711,19.402 " />
<polygon stroke="black" stroke-width="1" fill="rgb(204, 204, 204)" fill-opacity="0.25" points="330.711,19.402 692.450,19.402 675.227,0.078 347.935,0.078 " />
<polygon stroke="black" stroke-width="1" fill="rgb(204, 204, 204)" fill-opacity="0.25" points="692.450,396.511 692.450,531.179 739.700,517.534 739.700,413.881 " />
<polygon stroke="black" stroke-width="1" fill="rgb(204, 204, 204)" fill-opacity="0.25" points="692.449,892.919 692.449,1023.922 739.700,1015.015 739.700,903.465 " />
<polygon stroke="black" stroke-width="1" fill="rgb(204, 204, 204)" fill-opacity="0.25" points="692.450,531.179 692.449,892.919 785.203,892.919 785.203,531.179 " />
<polygon stroke="black" stroke-width="1" fill="rgb(204, 204, 204)" fill-opacity="0.25" points="330.710,1023.922 330.710,892.918 287.266,901.103 287.266,1014.577 " />
<polygon stroke="black" stroke-width="1" fill="rgb(204, 204, 204)" fill-opacity="0.25" points="330.711,531.179 330.711,396.510 287.266,404.138 287.266,520.610 " />
<polygon stroke="black" stroke-width="1" fill="rgb(204, 204, 204)" fill-opacity="0.25" points="330.710,892.918 330.711,531.179 238.165,531.179 238.164,892.918 " />
<polygon stroke="black" stroke-width="1" fill="rgb(204, 204, 204)" fill-opacity="0.25" points="785.203,531.179 785.203,892.919 791.516,892.974 791.517,531.234 " />
<polygon stroke="black" stroke-width="1" fill="rgb(204, 204, 204)" fill-opacity="0.25" points="791.517,531.234 791.516,892.974 809.603,872.444 809.603,551.764 " />
<polygon stroke="black" stroke-width="1" fill="rgb(204, 204, 204)" fill-opacity="0.25" points="238.164,892.918 238.165,531.179 220.078,550.932 220.078,873.165 " />

</svg>
