<?xml version="1.0" standalone="no"?>
<!DOCTYPE svg PUBLIC "-//W3C//DTD SVG 1.1//EN" 
  "http://www.w3.org/Graphics/SVG/1.1/DTD/svg11.dtd">
<svg width="1024" height="1024" viewBox="0 0 1024 1024"
     xmlns="http://www.w3.org/2000/svg" version="1.1">
<desc>Slipcase.blend, (Blender 2.83.5)</desc>
<polygon stroke="black" stroke-width="1" fill="rgb(204, 204, 204)" fill-opacity="0.25" points="566.885,875.591 566.885,444.486 133.471,444.486 133.471,875.591 " />
<polygon stroke="black" stroke-width="1" fill="rgb(204, 204, 204)" fill-opacity="0.25" points="567.093,446.020 567.093,879.434 691.429,879.434 691.429,446.020 " />
<polygon stroke="black" stroke-width="1" fill="rgb(204, 204, 204)" fill-opacity="0.25" points="691.429,444.648 691.429,878.062 983.627,876.582 983.627,443.168 " />
<polygon stroke="black" stroke-width="1" fill="rgb(204, 204, 204)" fill-opacity="0.25" points="983.627,443.168 983.627,876.582 1023.896,860.837 1023.896,458.913 " />
<polygon stroke="black" stroke-width="1" fill="rgb(204, 204, 204)" fill-opacity="0.25" points="131.376,874.212 131.376,440.798 7.041,440.798 7.041,874.212 " />
<polygon stroke="black" stroke-width="1" fill="rgb(204, 204, 204)" fill-opacity="0.25" points="694.804,883.296 570.468,883.296 570.468,949.975 671.327,949.975 " />
<polygon stroke="black" stroke-width="1" fill="rgb(204, 204, 204)" fill-opacity="0.25" points="567.466,879.721 136.361,879.721 134.162,990.863 567.576,990.853 " />
<polygon stroke="black" stroke-width="1" fill="rgb(204, 204, 204)" fill-opacity="0.25" points="567.576,990.853 134.162,990.863 152.751,1013.089 548.989,1013.080 " />
<polygon stroke="black" stroke-width="1" fill="rgb(204, 204, 204)" fill-opacity="0.25" points="130.552,879.737 6.216,879.737 29.693,946.416 130.552,946.416 " />

</svg>
